<svg width="70" height="49" viewBox="0 0 70 49" fill="none" xmlns="http://www.w3.org/2000/svg">
<path d="M21.3122 24.5913C28.3985 24.5913 33.7444 19.3042 33.7444 12.2957C33.7444 5.28714 28.3985 0 21.3122 0C14.2259 0 8.88009 5.28714 8.88009 12.2957C8.88009 19.3042 14.2259 24.5913 21.3122 24.5913ZM24.8643 27.9217H17.7602C7.96722 27.9217 0 35.8015 0 45.4869V49H42.6244V45.4869C42.6244 35.8015 34.6572 27.9217 24.8643 27.9217ZM64.9774 11.3858L56.8326 19.4412L48.6878 11.3858L43.6652 16.3532L51.8065 24.4051L43.6616 32.4606L48.6842 37.428L56.829 29.3726L64.9774 37.4315L70 32.4641L61.8552 24.4087L70 16.3532L64.9774 11.3858Z" fill="#BDBDBD"/>
</svg>
