<svg width="125" height="127" viewBox="0 0 125 127" fill="none" xmlns="http://www.w3.org/2000/svg">
<path d="M116.52 119C101.763 119 87.6111 113.138 77.1766 102.703C66.7421 92.2689 60.88 78.1166 60.88 63.36C60.88 48.6033 66.7421 34.4511 77.1766 24.0166C87.6111 13.582 101.763 7.71997 116.52 7.71997V17.04C104.235 17.04 92.4535 21.9201 83.7668 30.6068C75.0801 39.2935 70.2 51.0751 70.2 63.36C70.2 75.6448 75.0801 87.4265 83.7668 96.1132C92.4535 104.8 104.235 109.68 116.52 109.68V119Z" fill="url(#paint0_linear_750_546)"/>
<path d="M116.52 122.19C120.85 122.19 124.36 118.68 124.36 114.35C124.36 110.02 120.85 106.51 116.52 106.51C112.19 106.51 108.68 110.02 108.68 114.35C108.68 118.68 112.19 122.19 116.52 122.19Z" fill="#ED3EFB"/>
<path d="M116.52 20.23C120.85 20.23 124.36 16.72 124.36 12.39C124.36 8.06014 120.85 4.55005 116.52 4.55005C112.19 4.55005 108.68 8.06014 108.68 12.39C108.68 16.72 112.19 20.23 116.52 20.23Z" fill="#ED3EFB"/>
<path d="M61 67.18C56.21 67.18 34.23 66.36 20 52.02C4.39999 36.22 4.85999 10.71 4.88999 9.63004L4.99999 5.78004L8.79999 5.15004C9.89999 5.00004 36.49 0.780038 56.75 17.36C66.44 25.29 69.75 41.14 66.37 63.22L65.79 67L61.92 67.13L61 67.18ZM14.36 14C14.9 21.12 17.17 35.92 26.66 45.5C36.17 55.11 50.79 57.28 57.72 57.76C59.62 41.52 57.23 29.83 50.88 24.64C38.1 14.13 21.82 13.57 14.36 14Z" fill="url(#paint1_linear_750_546)"/>
<path d="M18.79 122.57C15.1388 122.56 11.4918 122.323 7.87001 121.86L4.06001 121.37L3.81001 117.53C3.73001 116.34 2.14001 88.2 19.37 73.07C35.37 59.07 60.43 60.29 61.49 60.36L65.62 60.6L65.87 64.72C67.36 88.94 62.78 104.72 51.87 112.86C50.1 114.37 39.54 122.57 18.79 122.57ZM13.09 113C30.67 114.36 40.67 109.26 44.29 106.88L46.18 105.48C53.75 99.89 57.31 87.86 56.77 69.68C49.69 69.96 35.16 71.61 25.52 80.07C15 89.27 13.31 105.57 13.09 113Z" fill="url(#paint2_linear_750_546)"/>
<path d="M63.7799 71.5301C68.1099 71.5301 71.6199 68.02 71.6199 63.6901C71.6199 59.3602 68.1099 55.8501 63.7799 55.8501C59.45 55.8501 55.9399 59.3602 55.9399 63.6901C55.9399 68.02 59.45 71.5301 63.7799 71.5301Z" fill="url(#paint3_linear_750_546)"/>
<path d="M7.84 126.74C12.1699 126.74 15.68 123.23 15.68 118.9C15.68 114.57 12.1699 111.06 7.84 111.06C3.51009 111.06 0 114.57 0 118.9C0 123.23 3.51009 126.74 7.84 126.74Z" fill="url(#paint4_linear_750_546)"/>
<path d="M9.03995 15.68C13.3699 15.68 16.88 12.1699 16.88 7.84C16.88 3.51009 13.3699 0 9.03995 0C4.71004 0 1.19995 3.51009 1.19995 7.84C1.19995 12.1699 4.71004 15.68 9.03995 15.68Z" fill="url(#paint5_linear_750_546)"/>
<defs>
<linearGradient id="paint0_linear_750_546" x1="87.38" y1="62.9" x2="16.21" y2="61.74" gradientUnits="userSpaceOnUse">
<stop stop-color="#ED3EFB"/>
<stop offset="0.06" stop-color="#DD46FB"/>
<stop offset="0.19" stop-color="#B35BFA"/>
<stop offset="0.36" stop-color="#6F7DF8"/>
<stop offset="0.57" stop-color="#13ACF6"/>
<stop offset="0.61" stop-color="#02B4F6"/>
<stop offset="0.73" stop-color="#02D5DB"/>
<stop offset="0.85" stop-color="#01F0C4"/>
<stop offset="0.93" stop-color="#01FABC"/>
</linearGradient>
<linearGradient id="paint1_linear_750_546" x1="28.5" y1="5" x2="83.5" y2="5" gradientUnits="userSpaceOnUse">
<stop stop-color="#01FABC"/>
<stop offset="0.416963" stop-color="#27A1F7"/>
<stop offset="0.757609" stop-color="#9B67F9"/>
</linearGradient>
<linearGradient id="paint2_linear_750_546" x1="27.2171" y1="60.7397" x2="81.8954" y2="60.7397" gradientUnits="userSpaceOnUse">
<stop stop-color="#01FABC"/>
<stop offset="0.416963" stop-color="#27A1F7"/>
<stop offset="0.757609" stop-color="#9B67F9"/>
</linearGradient>
<linearGradient id="paint3_linear_750_546" x1="62" y1="71" x2="68" y2="71" gradientUnits="userSpaceOnUse">
<stop stop-color="#5A88F8"/>
<stop offset="0.379392" stop-color="#6981F9"/>
<stop offset="0.953125" stop-color="#956AF9"/>
</linearGradient>
<linearGradient id="paint4_linear_750_546" x1="1355.54" y1="1995.48" x2="239.59" y2="1977.29" gradientUnits="userSpaceOnUse">
<stop stop-color="#ED3EFB"/>
<stop offset="0.06" stop-color="#DD46FB"/>
<stop offset="0.19" stop-color="#B35BFA"/>
<stop offset="0.36" stop-color="#6F7DF8"/>
<stop offset="0.57" stop-color="#13ACF6"/>
<stop offset="0.61" stop-color="#02B4F6"/>
<stop offset="0.73" stop-color="#02D5DB"/>
<stop offset="0.85" stop-color="#01F0C4"/>
<stop offset="0.93" stop-color="#01FABC"/>
</linearGradient>
<linearGradient id="paint5_linear_750_546" x1="1384.96" y1="143.158" x2="269.171" y2="124.97" gradientUnits="userSpaceOnUse">
<stop stop-color="#ED3EFB"/>
<stop offset="0.06" stop-color="#DD46FB"/>
<stop offset="0.19" stop-color="#B35BFA"/>
<stop offset="0.36" stop-color="#6F7DF8"/>
<stop offset="0.57" stop-color="#13ACF6"/>
<stop offset="0.61" stop-color="#02B4F6"/>
<stop offset="0.73" stop-color="#02D5DB"/>
<stop offset="0.85" stop-color="#01F0C4"/>
<stop offset="0.93" stop-color="#01FABC"/>
</linearGradient>
</defs>
</svg>
