<svg width="30" height="30" viewBox="0 0 30 30" fill="none" xmlns="http://www.w3.org/2000/svg">
<path d="M12.525 0.362844C11.6015 0.823824 11.1397 1.5345 11.0051 2.72537C10.8896 3.62812 10.8127 3.78178 10.3509 3.93544C9.88916 4.0891 9.73524 4.05068 9.29273 3.62812C7.65737 2.11073 6.27211 2.37963 4.15576 4.62691C2.44343 6.45162 2.25103 7.73852 3.50161 9.15987C4.02108 9.7361 4.0788 9.90897 3.92488 10.3507C3.77096 10.7925 3.59781 10.8885 2.71279 11.0038C0.654147 11.2535 0 12.2331 0 15.095C0 16.6508 0.0769585 17.131 0.384792 17.6304C0.904262 18.4755 1.63537 18.9173 2.7705 19.0325C3.61705 19.1094 3.77096 19.2054 3.92488 19.6472C4.0788 20.0889 4.02108 20.2618 3.50161 20.838C2.78974 21.6447 2.55887 22.6435 2.8667 23.6231C3.11682 24.4875 5.63721 27.0036 6.42603 27.2149C7.38801 27.4454 8.46543 27.1765 9.13882 26.5234C9.69676 25.9856 9.85068 25.928 10.3317 26.0817C10.6972 26.2161 10.8896 26.4082 10.9281 26.7347C11.0628 28.0216 11.2167 28.4826 11.6784 29.0396C12.3711 29.8655 12.8713 30 15.0646 30C16.5461 30 17.1233 29.9232 17.662 29.6351C18.4893 29.2125 19.0472 28.2329 19.0472 27.1765C19.0472 26.4658 19.1242 26.3506 19.6244 26.1393C20.1439 25.928 20.2401 25.9472 20.875 26.5042C21.683 27.1957 22.2602 27.3686 23.3184 27.2341C23.9918 27.1381 24.3381 26.8884 25.6272 25.6015C26.9162 24.3146 27.1663 23.9688 27.2625 23.2966C27.3972 22.2402 27.2241 21.6639 26.5314 20.8572C25.9735 20.2234 25.9542 20.1274 26.1659 19.6087C26.3775 19.1094 26.4929 19.0325 27.1663 19.0325C28.2053 19.0325 29.148 18.5523 29.6482 17.7648C30.0138 17.1694 30.033 16.8813 29.9753 14.8261C29.9176 12.6941 29.8791 12.502 29.4366 12.0218C28.7825 11.3111 28.3784 11.119 27.2625 10.9846C26.416 10.8885 26.2621 10.7925 26.1082 10.3315C25.9542 9.85135 26.012 9.69769 26.5507 9.14067C27.2048 8.4684 27.4742 7.39279 27.2433 6.43241C27.0317 5.64491 24.5113 3.12872 23.6455 2.87903C22.6643 2.57171 21.6638 2.8022 20.875 3.49367C20.2978 3.99306 20.1246 4.05068 19.6821 3.91623C19.2204 3.76257 19.1242 3.5897 19.0472 2.87903C18.8933 1.70737 18.3354 0.843033 17.4118 0.40126C16.3344 -0.117342 13.487 -0.136549 12.525 0.362844ZM16.7 2.36042C16.8347 2.49488 16.9309 2.95586 16.9309 3.39763C16.9309 4.76136 17.2002 5.16472 18.4123 5.72174C20.2978 6.54766 20.6441 6.52845 21.6446 5.60649C22.1063 5.18392 22.645 4.81898 22.8374 4.81898C23.2992 4.81898 25.2039 6.73973 25.2039 7.20071C25.2039 7.39279 24.8576 7.9306 24.4343 8.39157C24.011 8.85255 23.6647 9.39036 23.6647 9.58244C23.6647 10.1779 24.6267 12.3867 25.05 12.7325C25.3193 12.9822 25.7618 13.0782 26.5699 13.0782C27.9359 13.0782 28.0898 13.2895 28.0898 14.999C28.0898 16.67 27.9167 16.9197 26.6853 16.9197C26.1274 16.9197 25.4732 17.0349 25.2424 17.1694C24.7806 17.3999 23.6647 19.724 23.6647 20.4155C23.6647 20.6075 24.011 21.1453 24.4343 21.6063C24.8576 22.0673 25.2039 22.6051 25.2039 22.7972C25.2039 23.2582 23.2992 25.1789 22.8182 25.1789C22.6258 25.1789 22.0871 24.8332 21.6253 24.4106C21.1636 23.9881 20.6249 23.6423 20.4325 23.6423C20.0284 23.6423 17.5658 24.6603 17.2772 24.9484C17.1617 25.0637 17.0078 25.7551 16.9501 26.4658L16.8347 27.7719H15.0069H13.1791L13.0829 26.485C13.0252 25.6975 12.8713 25.0829 12.6981 24.91C12.3518 24.5643 10.0623 23.6423 9.58133 23.6423C9.38893 23.6423 8.85022 23.9881 8.38847 24.4106C7.92672 24.8332 7.38801 25.1789 7.19562 25.1789C6.73386 25.1789 4.8099 23.2774 4.8099 22.8356C4.8099 22.6435 5.15622 22.1057 5.57949 21.6447C6.06048 21.1261 6.34907 20.6267 6.34907 20.3194C6.34907 19.7432 5.32937 17.4191 4.98306 17.1886C4.84838 17.1118 4.15576 16.9965 3.46313 16.9389L2.21256 16.8237L2.15484 15.1142C2.09712 13.155 2.1356 13.0782 3.52085 13.0782C4.82914 13.0782 5.13698 12.8477 5.79112 11.4072C6.54147 9.71689 6.52223 9.29433 5.57949 8.37237C5.15622 7.96901 4.8099 7.45041 4.8099 7.23913C4.8099 6.75894 6.7531 4.81898 7.23409 4.81898C7.44573 4.81898 7.9652 5.16472 8.36923 5.58728C9.29273 6.52845 9.71601 6.54766 11.4091 5.79856C12.8328 5.16472 13.0829 4.81898 13.0829 3.5897C13.0829 2.14914 13.1214 2.12993 14.8915 2.12993C15.8534 2.12993 16.5653 2.22597 16.7 2.36042Z" fill="#6B2CFB"/>
<path d="M13.66 8.1612C11.486 8.62218 9.61973 10.082 8.63851 12.0795C8.25372 12.8478 8.17676 13.2704 8.17676 14.9991C8.17676 16.8238 8.23448 17.1311 8.71547 18.1107C10.0622 20.8574 13.3522 22.5092 16.2766 21.9138C18.6046 21.4336 20.4901 19.9354 21.4906 17.7842C21.9331 16.8238 22.01 16.3628 22.01 15.0951C22.01 12.9247 21.4713 11.6185 19.9322 10.082C18.1814 8.33407 15.9496 7.66181 13.66 8.1612ZM17.3348 10.6966C19.0856 11.5801 20.163 13.5393 19.9514 15.4793C19.6243 18.6101 16.6614 20.6077 13.6408 19.7433C11.1781 19.0134 9.67745 16.5165 10.2162 14.0387C10.9088 10.7926 14.3527 9.1792 17.3348 10.6966Z" fill="#6B2CFB"/>
</svg>
