<svg width="30" height="31" viewBox="0 0 30 31" fill="none" xmlns="http://www.w3.org/2000/svg">
<path d="M28.1087 28.707C24.5489 28.707 21.1349 27.2928 18.6177 24.7756C16.1005 22.2585 14.6864 18.8444 14.6864 15.2846C14.6864 11.7248 16.1005 8.31079 18.6177 5.79361C21.1349 3.27644 24.5489 1.8623 28.1087 1.8623V4.11062C25.1452 4.11062 22.303 5.28787 20.2075 7.38341C18.112 9.47894 16.9347 12.3211 16.9347 15.2846C16.9347 18.2482 18.112 21.0903 20.2075 23.1858C22.303 25.2814 25.1452 26.4586 28.1087 26.4586V28.707Z" fill="#BDBDBD"/>
<path d="M28.1087 29.4764C29.1532 29.4764 30 28.6297 30 27.5851C30 26.5406 29.1532 25.6938 28.1087 25.6938C27.0642 25.6938 26.2174 26.5406 26.2174 27.5851C26.2174 28.6297 27.0642 29.4764 28.1087 29.4764Z" fill="#BDBDBD"/>
<path d="M28.1087 4.88022C29.1532 4.88022 30 4.03347 30 2.98894C30 1.94441 29.1532 1.09766 28.1087 1.09766C27.0642 1.09766 26.2174 1.94441 26.2174 2.98894C26.2174 4.03347 27.0642 4.88022 28.1087 4.88022Z" fill="#BDBDBD"/>
<path d="M14.7154 16.2061C13.5599 16.2061 8.25752 16.0083 4.82474 12.549C1.06147 8.73744 1.17244 2.58353 1.17968 2.32299L1.20622 1.39424L2.12291 1.24226C2.38827 1.20608 8.80271 0.188064 13.6901 4.18774C16.0277 6.10074 16.8262 9.92431 16.0108 15.2508L15.8709 16.1627L14.9373 16.194L14.7154 16.2061ZM3.46418 3.37719C3.59444 5.09479 4.14205 8.66507 6.43137 10.9761C8.72552 13.2944 12.2524 13.8178 13.9241 13.9336C14.3825 10.016 13.8059 7.19594 12.2741 5.94393C9.1911 3.40855 5.26379 3.27346 3.46418 3.37719Z" fill="#BDBDBD"/>
<path d="M4.53289 29.5681C3.65209 29.5657 2.77229 29.5085 1.8986 29.3968L0.979497 29.2786L0.919188 28.3523C0.899889 28.0652 0.516325 21.2769 4.67281 17.627C8.53257 14.2497 14.5779 14.544 14.8336 14.5609L15.8299 14.6188L15.8902 15.6127C16.2497 21.4554 15.1448 25.2621 12.5129 27.2257C12.086 27.59 9.53852 29.5681 4.53289 29.5681ZM3.15785 27.2595C7.39876 27.5876 9.81112 26.3573 10.6844 25.7831L11.1403 25.4454C12.9665 24.0969 13.8253 21.1949 13.695 16.8092C11.9871 16.8767 8.48191 17.2748 6.1564 19.3156C3.61861 21.535 3.21092 25.4671 3.15785 27.2595Z" fill="#BDBDBD"/>
<path d="M15.3859 17.2555C16.4304 17.2555 17.2772 16.4087 17.2772 15.3642C17.2772 14.3197 16.4304 13.4729 15.3859 13.4729C14.3414 13.4729 13.4946 14.3197 13.4946 15.3642C13.4946 16.4087 14.3414 17.2555 15.3859 17.2555Z" fill="#BDBDBD"/>
<path d="M1.89128 30.5741C2.93581 30.5741 3.78257 29.7273 3.78257 28.6828C3.78257 27.6383 2.93581 26.7915 1.89128 26.7915C0.846756 26.7915 0 27.6383 0 28.6828C0 29.7273 0.846756 30.5741 1.89128 30.5741Z" fill="#BDBDBD"/>
<path d="M2.18083 3.78257C3.22536 3.78257 4.07212 2.93581 4.07212 1.89128C4.07212 0.846756 3.22536 0 2.18083 0C1.13631 0 0.289551 0.846756 0.289551 1.89128C0.289551 2.93581 1.13631 3.78257 2.18083 3.78257Z" fill="#BDBDBD"/>
</svg>
