<svg width="35" height="30" viewBox="0 0 35 30" fill="none" xmlns="http://www.w3.org/2000/svg">
<path d="M16.721 0.198713C15.9407 0.619074 1.11529 12.2122 0.513352 12.8759C-0.467577 13.96 0.0228876 15.6193 1.4274 15.9733C1.96245 16.106 3.09944 15.6414 3.85743 14.9998C4.21413 14.6901 4.23642 15.0219 4.23642 21.7919V28.9159L4.79377 29.4469L5.32882 30H17.2783C29.5399 30 29.8297 29.9779 30.4763 29.1372C30.6769 28.8717 30.7438 26.9247 30.7661 21.7256C30.7661 15.0219 30.7884 14.6901 31.1674 14.9998C31.9477 15.6856 33.0178 16.0839 33.6866 15.9511C35.0688 15.6414 35.4478 13.8936 34.4 12.7653C33.8872 12.2343 25.6831 5.75189 19.6192 1.10581C18.1924 -0.000404358 17.5013 -0.221645 16.721 0.198713ZM22.2944 8.07493C24.6799 9.95548 26.7086 11.6148 26.7978 11.7254C26.9093 11.8582 26.9538 15.1989 26.9093 19.1591L26.8647 26.3495L17.635 26.4159C10.3895 26.4601 8.36078 26.4159 8.20473 26.1946C8.11555 26.0398 8.02638 22.8096 8.02638 19.0043C8.02638 12.1679 8.02638 12.1015 8.51684 11.5484C9.47548 10.4865 17.4567 4.35806 17.7019 4.51293C17.8357 4.5793 19.909 6.19437 22.2944 8.07493Z" fill="#BDBDBD"/>
</svg>
