<svg width="285" height="550" viewBox="0 0 285 550" fill="none" xmlns="http://www.w3.org/2000/svg">
<g opacity="0.13">
<path d="M505.649 516.409C441.611 516.409 380.196 490.971 334.915 445.689C289.633 400.408 264.194 338.993 264.194 274.955C264.194 210.917 289.633 149.502 334.915 104.221C380.196 58.9394 441.611 33.5005 505.649 33.5005V73.9454C452.338 73.9454 401.21 95.1231 363.513 132.82C325.817 170.516 304.639 221.644 304.639 274.955C304.639 328.266 325.817 379.394 363.513 417.09C401.21 454.787 452.338 475.965 505.649 475.965V516.409Z" fill="white"/>
<path d="M264.715 291.533C243.928 291.533 148.544 287.974 86.7917 225.744C19.0942 157.179 21.0904 46.4763 21.2206 41.7895L21.698 25.0821L38.1884 22.3482C42.9619 21.6972 158.351 3.38419 246.271 75.3345C288.322 109.747 302.686 178.53 288.018 274.348L285.501 290.751L268.707 291.316L264.715 291.533ZM62.3165 60.7535C64.6598 91.6513 74.5107 155.877 115.693 197.45C156.963 239.154 220.408 248.571 250.481 250.654C258.726 180.179 248.354 129.449 220.798 106.927C165.338 61.3176 94.6898 58.8875 62.3165 60.7535Z" fill="white"/>
<path d="M81.5408 531.902C65.6961 531.859 49.8694 530.83 34.1525 528.821L17.6187 526.695L16.5338 510.031C16.1866 504.867 9.28668 382.751 84.0577 317.093C153.491 256.339 262.241 261.633 266.841 261.937L284.764 262.978L285.848 280.857C292.314 385.962 272.439 454.441 225.094 489.765C217.413 496.318 171.587 531.902 81.5408 531.902ZM56.8051 490.372C133.095 496.274 176.491 474.142 192.2 463.814L200.402 457.739C233.253 433.48 248.702 381.275 246.358 302.382C215.634 303.597 152.58 310.757 110.746 347.47C65.0937 387.394 57.7598 458.129 56.8051 490.372Z" fill="white"/>
<path d="M276.779 310.409C295.569 310.409 310.801 295.177 310.801 276.387C310.801 257.597 295.569 242.365 276.779 242.365C257.989 242.365 242.756 257.597 242.756 276.387C242.756 295.177 257.989 310.409 276.779 310.409Z" fill="white"/>
<path d="M34.0223 550C52.8124 550 68.0447 534.767 68.0447 515.977C68.0447 497.187 52.8124 481.955 34.0223 481.955C15.2323 481.955 0 497.187 0 515.977C0 534.767 15.2323 550 34.0223 550Z" fill="white"/>
<path d="M39.2299 68.0447C58.0199 68.0447 73.2523 52.8124 73.2523 34.0223C73.2523 15.2323 58.0199 0 39.2299 0C20.4399 0 5.20758 15.2323 5.20758 34.0223C5.20758 52.8124 20.4399 68.0447 39.2299 68.0447Z" fill="white"/>
</g>
</svg>
