<svg width="30" height="30" viewBox="0 0 30 30" fill="none" xmlns="http://www.w3.org/2000/svg">
<g opacity="0.5">
<path d="M15 1.875C12.4041 1.875 9.86654 2.64477 7.70815 4.08696C5.54975 5.52916 3.86749 7.579 2.87409 9.97728C1.88069 12.3756 1.62077 15.0146 2.1272 17.5606C2.63363 20.1066 3.88367 22.4452 5.71923 24.2808C7.55479 26.1163 9.89345 27.3664 12.4394 27.8728C14.9854 28.3792 17.6244 28.1193 20.0227 27.1259C22.421 26.1325 24.4709 24.4503 25.913 22.2919C27.3552 20.1335 28.125 17.5959 28.125 15C28.125 11.519 26.7422 8.18064 24.2808 5.71922C21.8194 3.25781 18.481 1.875 15 1.875ZM15 26.25C12.775 26.25 10.5999 25.5902 8.74984 24.354C6.89979 23.1179 5.45785 21.3609 4.60636 19.3052C3.75488 17.2495 3.53209 14.9875 3.96617 12.8052C4.40026 10.6229 5.47171 8.61839 7.04505 7.04505C8.6184 5.47171 10.623 4.40025 12.8052 3.96617C14.9875 3.53208 17.2495 3.75487 19.3052 4.60636C21.3609 5.45784 23.1179 6.89978 24.354 8.74984C25.5902 10.5999 26.25 12.775 26.25 15C26.25 17.9837 25.0647 20.8452 22.955 22.955C20.8452 25.0647 17.9837 26.25 15 26.25Z" fill="#C94A39"/>
<path d="M14.0625 7.5H15.9375V17.8125H14.0625V7.5ZM15 20.625C14.7219 20.625 14.45 20.7075 14.2187 20.862C13.9875 21.0165 13.8072 21.2361 13.7008 21.4931C13.5944 21.7501 13.5665 22.0328 13.6208 22.3056C13.675 22.5784 13.809 22.829 14.0056 23.0256C14.2023 23.2223 14.4529 23.3562 14.7257 23.4105C14.9984 23.4647 15.2812 23.4369 15.5381 23.3305C15.7951 23.224 16.0147 23.0438 16.1693 22.8125C16.3238 22.5813 16.4063 22.3094 16.4063 22.0312C16.4063 21.6583 16.2581 21.3006 15.9944 21.0369C15.7306 20.7732 15.373 20.625 15 20.625Z" fill="#C94A39"/>
</g>
</svg>
