<svg width="35" height="30" viewBox="0 0 35 30" fill="none" xmlns="http://www.w3.org/2000/svg">
<path d="M6.73084 0.394159C5.51866 0.985401 5.13705 1.68613 4.80034 3.9416C4.62075 5.05839 4.44117 6 4.41873 6.02189C4.37383 6.04379 3.7453 6.17518 3.00452 6.32846C1.97193 6.52554 1.47808 6.74452 0.871993 7.33576L0.0863241 8.10218L0.0189811 18.0219C-0.0259143 27.635 -0.0259143 27.9416 0.423039 28.6423C1.2985 30.0219 1.11892 30 15.0365 30H27.6521L28.5949 29.4525C29.605 28.8832 30.2785 27.8321 30.2785 26.781C30.2785 26.2774 30.4356 26.1022 31.1764 25.7956C32.1641 25.4014 32.8824 24.4379 33.0844 23.2117C33.1518 22.7518 33.668 18.6788 34.1843 14.1241C34.9251 7.86131 35.1047 5.64963 34.9476 5.05839C34.6109 3.83211 33.5558 2.91241 32.209 2.62774C30.8172 2.34306 9.46945 0 8.32462 0C7.85322 0 7.15734 0.175182 6.73084 0.394159ZM21.0525 3.06569C33.6905 4.51095 33.3313 4.40146 33.264 6.06569C33.2191 7.02919 31.4233 22.4233 31.2886 23.146C31.2213 23.4087 30.9968 23.781 30.7723 24C30.4131 24.3722 30.3907 24 30.2785 16.489C30.1662 8.9343 30.1438 8.54014 29.6948 7.9708C28.9989 7.05109 28.1908 6.54744 27.1133 6.32846C26.5746 6.24087 21.6585 6.15328 16.2038 6.13138C10.7265 6.13138 6.25944 6.06569 6.25944 5.9562C6.28188 4.9927 6.79818 2.64963 7.0451 2.25547C7.53895 1.53285 8.05525 1.57664 21.0525 3.06569ZM27.9439 8.60583C28.4602 9.19707 28.4826 9.32846 28.4826 12.9197V16.6423L27.6521 17.1679C26.2828 18.0219 19.9076 21.5912 19.0322 22.0073C18.5383 22.2482 17.9771 22.3358 17.6629 22.2701C17.3486 22.1825 15.9568 21.1314 14.5426 19.927C9.94086 15.9416 9.58169 15.9197 4.55341 19.489L1.7699 21.4598V15.1533C1.7699 9.39415 1.8148 8.80291 2.17396 8.49634C2.37599 8.29926 2.7576 8.10218 3.00452 8.03649C3.25145 7.9708 8.84092 7.9489 15.4181 7.9489L27.4051 7.99269L27.9439 8.60583ZM13.2182 21.1095C16.4731 23.8686 17.371 24.3066 18.9648 23.8905C19.4362 23.7591 21.7708 22.5766 24.1053 21.2409L28.3704 18.8321L28.4377 23.0146C28.4826 27.0876 28.4826 27.2409 27.9888 27.7445L27.5174 28.2482H14.9916C4.28404 28.2482 2.42088 28.2044 2.15151 27.9197C1.74745 27.5255 1.47808 25.3357 1.725 24.3066C1.88214 23.6277 2.33109 23.2336 5.33908 21.0657C8.10014 19.073 8.90826 18.6131 9.51435 18.6131C10.1653 18.6131 10.7265 18.9854 13.2182 21.1095Z" fill="#BDBDBD"/>
</svg>
