<svg width="34" height="34" viewBox="0 0 34 34" fill="none" xmlns="http://www.w3.org/2000/svg">
<path d="M22.3969 22.9683L34 32.3936V12.6636L22.3969 22.9683Z" fill="#BDBDBD"/>
<path d="M20.7169 24.4604L17 27.7613L13.2832 24.4604L1.53916 34H32.4609L20.7169 24.4604Z" fill="#BDBDBD"/>
<path d="M0 12.6636V32.3935L11.6032 22.9683L0 12.6636Z" fill="#BDBDBD"/>
<path d="M4.17921 6.64063e-05V13.4095L17 24.7957L29.8208 13.4095V0L4.17921 6.64063e-05ZM18.6129 13.1322C17.9449 13.6489 17 14.2622 17 14.2622C17 14.2622 16.0551 13.6489 15.3871 13.1322C14.3554 12.3343 12.3724 10.7259 12.3724 9.08185C12.3724 7.61925 13.558 6.43364 15.0206 6.43364C15.808 6.43364 16.5148 6.77769 16.9999 7.32335C17.485 6.77775 18.1918 6.43364 18.9793 6.43364C20.4419 6.43364 21.6275 7.61925 21.6275 9.08185C21.6275 10.7259 19.6446 12.3343 18.6129 13.1322Z" fill="#BDBDBD"/>
</svg>
