<svg width="125" height="120" viewBox="0 0 125 120" fill="none" xmlns="http://www.w3.org/2000/svg">
<path d="M22.9529 118.224C22.582 118.611 22.1352 118.918 21.6404 119.124C21.1456 119.331 20.6134 119.433 20.0773 119.424H12.2184C10.6124 119.444 9.01906 119.137 7.53501 118.523C6.05095 117.909 4.70707 117 3.58477 115.851C2.44904 114.727 1.54744 113.389 0.932129 111.914C0.316817 110.439 0 108.857 0 107.259C0 105.661 0.316817 104.079 0.932129 102.604C1.54744 101.129 2.44904 99.7913 3.58477 98.6673C4.70147 97.5272 6.03838 96.6263 7.5142 96.0192C8.99002 95.412 10.5739 95.1114 12.1695 95.1356H20.0285C20.5682 95.1306 21.1035 95.2342 21.6023 95.4405C22.1012 95.6467 22.5533 95.9513 22.9319 96.3361C23.5111 96.902 23.9083 97.6278 24.0726 98.4207C24.237 99.2136 24.161 100.037 23.8545 100.787C23.548 101.536 23.0248 102.177 22.3519 102.628C21.679 103.078 20.8871 103.318 20.0773 103.316H12.2184C11.6838 103.307 11.153 103.407 10.6577 103.608C10.1625 103.81 9.71289 104.109 9.33587 104.488C8.95657 104.847 8.65494 105.28 8.44966 105.76C8.24437 106.241 8.13979 106.758 8.14238 107.28C8.15506 108.344 8.58342 109.361 9.33593 110.114C10.0884 110.866 11.1054 111.294 12.1695 111.307H20.0285C20.5682 111.302 21.1035 111.406 21.6023 111.612C22.1012 111.818 22.5533 112.123 22.9319 112.508C23.3152 112.882 23.6197 113.329 23.8276 113.823C24.0355 114.317 24.1426 114.847 24.1426 115.383C24.1426 115.919 24.0355 116.449 23.8276 116.943C23.6197 117.437 23.3152 117.884 22.9319 118.259L22.9529 118.224Z" fill="white"/>
<path d="M45.9642 102.017C45.5934 102.404 45.1465 102.711 44.6517 102.918C44.1569 103.124 43.6248 103.226 43.0887 103.218H37.1002C36.5727 103.212 36.0496 103.314 35.5625 103.517C35.0755 103.72 34.6346 104.019 34.2666 104.397C33.8817 104.764 33.5769 105.206 33.3715 105.696C33.1661 106.186 33.0645 106.713 33.0731 107.245V115.376C33.0676 116.455 32.6364 117.489 31.8732 118.252C31.1099 119.015 30.0764 119.446 28.9971 119.452C28.4571 119.459 27.9213 119.356 27.4223 119.149C26.9232 118.943 26.4712 118.638 26.0936 118.251C25.7015 117.883 25.3904 117.437 25.1801 116.942C24.9698 116.447 24.865 115.914 24.8722 115.376V107.245C24.8777 104.016 26.1627 100.922 28.4455 98.6389C30.7283 96.3561 33.823 95.0711 37.0514 95.0656H43.0398C43.5796 95.0605 44.1148 95.1642 44.6137 95.3705C45.1125 95.5767 45.5647 95.8813 45.9433 96.2661C46.3265 96.6405 46.631 97.0878 46.839 97.5816C47.0469 98.0754 47.154 98.6058 47.154 99.1416C47.154 99.6774 47.0469 100.208 46.839 100.702C46.631 101.195 46.3265 101.643 45.9433 102.017H45.9642Z" fill="white"/>
<path d="M69.199 115.85C67.4957 117.551 65.3268 118.709 62.9659 119.178C60.605 119.647 58.1581 119.406 55.9342 118.485C53.7103 117.564 51.8091 116.005 50.4706 114.004C49.1322 112.004 48.4165 109.652 48.4141 107.245V99.1414C48.4576 98.0904 48.9057 97.097 49.6647 96.3688C50.4237 95.6406 51.4348 95.234 52.4866 95.234C53.5384 95.234 54.5496 95.6406 55.3085 96.3688C56.0675 97.097 56.5156 98.0904 56.5591 99.1414V107.245C56.5753 108.308 57.0048 109.323 57.7566 110.074C58.5083 110.826 59.5233 111.256 60.5863 111.272C61.1069 111.276 61.6229 111.175 62.1029 110.973C62.5829 110.771 63.0168 110.474 63.3781 110.099C63.7593 109.729 64.0607 109.285 64.2635 108.794C64.4664 108.303 64.5665 107.776 64.5576 107.245V99.1902C64.5668 98.1116 65.0018 97.0802 65.7678 96.3207C66.5339 95.5612 67.5689 95.1351 68.6476 95.1352C69.1863 95.1306 69.7203 95.2346 70.2179 95.4408C70.7156 95.6471 71.1666 95.9514 71.5441 96.3356C71.9354 96.7008 72.2471 97.1428 72.4597 97.634C72.6723 98.1252 72.7812 98.655 72.7795 99.1902V107.245C72.8027 108.848 72.4969 110.438 71.8811 111.918C71.2652 113.399 70.3524 114.737 69.199 115.85Z" fill="white"/>
<path d="M97.6963 102.017C97.3249 102.404 96.878 102.71 96.3833 102.917C95.8886 103.123 95.3567 103.226 94.8207 103.218H86.0963C85.5242 103.189 84.9537 103.301 84.4352 103.544C83.9167 103.788 83.466 104.155 83.1231 104.614C82.5787 105.451 82.0343 106.296 81.4899 107.161C81.1329 107.617 80.6727 107.981 80.1472 108.224C79.6217 108.466 79.0461 108.581 78.4677 108.557C77.3891 108.552 76.3562 108.12 75.5941 107.357C74.832 106.593 74.4024 105.56 74.3987 104.481C74.4008 104.006 74.4809 103.534 74.636 103.085C75.4281 100.719 76.9848 98.6835 79.061 97.2992C81.1156 95.8442 83.5717 95.0638 86.0894 95.0658H94.8137C95.6252 95.0594 96.4201 95.2958 97.0963 95.7447C97.7724 96.1935 98.2988 96.8343 98.608 97.5847C98.9171 98.335 98.9948 99.1607 98.8311 99.9556C98.6674 100.75 98.2698 101.478 97.6893 102.045L97.6963 102.017ZM98.6036 111.419C97.7831 113.772 96.2266 115.798 94.1646 117.198C92.1299 118.655 89.6878 119.434 87.1851 119.424H78.4677C77.3867 119.424 76.35 118.995 75.5856 118.23C74.8212 117.466 74.3917 116.429 74.3917 115.348C74.3917 114.267 74.8212 113.23 75.5856 112.466C76.35 111.702 77.3867 111.272 78.4677 111.272H87.1991C88.9579 111.272 90.2026 110.386 90.9331 108.613C91.2704 107.722 91.908 106.977 92.736 106.506C93.564 106.035 94.5305 105.868 95.4686 106.033C96.4067 106.199 97.2576 106.686 97.8746 107.412C98.4915 108.138 98.8357 109.056 98.8479 110.009C98.8499 110.49 98.7672 110.967 98.6036 111.419Z" fill="white"/>
<path d="M123.395 118.224C122.826 118.801 122.099 119.195 121.305 119.357C120.511 119.519 119.687 119.44 118.939 119.132C118.19 118.823 117.55 118.298 117.1 117.624C116.651 116.951 116.412 116.158 116.415 115.348V107.196C116.425 106.666 116.325 106.139 116.122 105.649C115.919 105.159 115.617 104.717 115.236 104.348C114.876 103.971 114.443 103.671 113.962 103.469C113.482 103.266 112.965 103.164 112.444 103.169C111.381 103.187 110.366 103.617 109.614 104.368C108.861 105.119 108.43 106.133 108.41 107.196V115.376C108.366 116.427 107.918 117.42 107.159 118.149C106.4 118.877 105.389 119.283 104.337 119.283C103.285 119.283 102.274 118.877 101.515 118.149C100.756 117.42 100.308 116.427 100.265 115.376V90.9478C100.242 90.3988 100.33 89.8509 100.525 89.3369C100.719 88.823 101.016 88.3537 101.396 87.9572C101.776 87.5607 102.233 87.2452 102.739 87.0297C103.244 86.8142 103.788 86.7031 104.337 86.7031C104.887 86.7031 105.431 86.8142 105.936 87.0297C106.441 87.2452 106.898 87.5607 107.278 87.9572C107.659 88.3537 107.955 88.823 108.15 89.3369C108.344 89.8509 108.433 90.3988 108.41 90.9478V95.6938C109.708 95.2451 111.07 95.0094 112.444 94.9959C114.05 94.9758 115.643 95.2878 117.122 95.9123C118.602 96.5369 119.937 97.4605 121.043 98.6252C122.188 99.7431 123.094 101.083 123.705 102.562C124.316 104.042 124.619 105.63 124.595 107.231V115.376C124.598 115.907 124.492 116.433 124.286 116.923C124.08 117.412 123.777 117.855 123.395 118.224Z" fill="white"/>
<path d="M96.9566 76.5518C87.4637 76.5518 78.3596 72.7808 71.6472 66.0683C64.9347 59.3558 61.1637 50.2518 61.1637 40.7589C61.1637 31.2661 64.9347 22.162 71.6472 15.4496C78.3596 8.73709 87.4637 4.96606 96.9566 4.96606V10.9616C89.0538 10.9616 81.4747 14.1009 75.8866 19.689C70.2986 25.2771 67.1592 32.8562 67.1592 40.7589C67.1592 48.6617 70.2986 56.2408 75.8866 61.8288C81.4747 67.4169 89.0538 70.5563 96.9566 70.5563V76.5518Z" fill="white"/>
<path d="M96.9566 78.6039C99.742 78.6039 102 76.3459 102 73.5605C102 70.7751 99.742 68.5171 96.9566 68.5171C94.1712 68.5171 91.9132 70.7751 91.9132 73.5605C91.9132 76.3459 94.1712 78.6039 96.9566 78.6039Z" fill="white"/>
<path d="M96.9566 13.0138C99.742 13.0138 102 10.7558 102 7.97042C102 5.18502 99.742 2.927 96.9566 2.927C94.1712 2.927 91.9132 5.18502 91.9132 7.97042C91.9132 10.7558 94.1712 13.0138 96.9566 13.0138Z" fill="white"/>
<path d="M61.2409 43.2164C58.1595 43.2164 44.0199 42.6889 34.8658 33.464C24.8304 23.3 25.1264 6.88957 25.1457 6.19482L25.2164 3.71814L27.6609 3.31286C28.3686 3.21637 45.4737 0.501668 58.5069 11.1675C64.7404 16.2688 66.8697 26.465 64.6954 40.6689L64.3222 43.1006L61.8327 43.1842L61.2409 43.2164ZM31.2376 9.00601C31.585 13.5863 33.0453 23.107 39.1502 29.2698C45.2679 35.4518 54.6728 36.8478 59.1309 37.1565C60.3531 26.7094 58.8156 19.1893 54.7307 15.8507C46.5094 9.08964 36.0366 8.72939 31.2376 9.00601Z" fill="white"/>
<path d="M34.0875 78.8484C31.7387 78.842 29.3926 78.6895 27.0628 78.3917L24.6118 78.0765L24.451 75.6062C24.3995 74.8407 23.3767 56.7384 34.4607 47.0054C44.7534 37.9993 60.8743 38.7841 61.5562 38.8291L64.213 38.9835L64.3738 41.6339C65.3323 57.2144 62.386 67.3656 55.3677 72.602C54.2291 73.5734 47.4359 78.8484 34.0875 78.8484ZM30.4208 72.6921C41.7299 73.567 48.1628 70.2862 50.4915 68.7551L51.7074 67.8545C56.5771 64.2585 58.8672 56.5197 58.5198 44.8246C53.9653 45.0047 44.6183 46.0662 38.4169 51.5084C31.6495 57.4267 30.5623 67.9124 30.4208 72.6921Z" fill="white"/>
<path d="M63.0293 46.0146C65.8147 46.0146 68.0727 43.7566 68.0727 40.9712C68.0727 38.1858 65.8147 35.9277 63.0293 35.9277C60.2439 35.9277 57.9858 38.1858 57.9858 40.9712C57.9858 43.7566 60.2439 46.0146 63.0293 46.0146Z" fill="white"/>
<path d="M27.0434 81.5312C29.8288 81.5312 32.0868 79.2732 32.0868 76.4878C32.0868 73.7024 29.8288 71.4443 27.0434 71.4443C24.258 71.4443 22 73.7024 22 76.4878C22 79.2732 24.258 81.5312 27.0434 81.5312Z" fill="white"/>
<path d="M27.8154 10.0868C30.6008 10.0868 32.8588 7.82883 32.8588 5.04342C32.8588 2.25802 30.6008 0 27.8154 0C25.03 0 22.772 2.25802 22.772 5.04342C22.772 7.82883 25.03 10.0868 27.8154 10.0868Z" fill="white"/>
</svg>
