<svg width="34" height="34" viewBox="0 0 34 34" fill="none" xmlns="http://www.w3.org/2000/svg">
<path d="M8.50033 2.83325H21.2503C22.0018 2.83325 22.7224 3.13176 23.2538 3.66312C23.7851 4.19447 24.0837 4.91514 24.0837 5.66659V8.49992H21.2503V5.66659H8.50033V28.3333H21.2503V25.4999H24.0837V28.3333C24.0837 29.0847 23.7851 29.8054 23.2538 30.3367C22.7224 30.8681 22.0018 31.1666 21.2503 31.1666H8.50033C7.74888 31.1666 7.02821 30.8681 6.49686 30.3367C5.9655 29.8054 5.66699 29.0847 5.66699 28.3333V5.66659C5.66699 4.91514 5.9655 4.19447 6.49686 3.66312C7.02821 3.13176 7.74888 2.83325 8.50033 2.83325Z" fill="#BDBDBD"/>
<path d="M22.7942 22.0859L24.7917 24.0834L31.875 17.0001L24.7917 9.91675L22.7942 11.9142L26.4492 15.5834H12.75V18.4167H26.4492L22.7942 22.0859Z" fill="#BDBDBD"/>
</svg>
