<svg width="23" height="20" viewBox="0 0 23 20" fill="none" xmlns="http://www.w3.org/2000/svg">
<path d="M16.5172 12.5786H15.5077L15.1499 12.2699C16.4022 10.9663 17.1562 9.27387 17.1562 7.43282C17.1562 3.32762 13.4375 0 8.84981 0C4.26215 0 0.543457 3.32762 0.543457 7.43282C0.543457 11.538 4.26215 14.8656 8.84981 14.8656C10.9072 14.8656 12.7985 14.191 14.2553 13.0703L14.6004 13.3905V14.2939L20.9899 20L22.8939 18.2962L16.5172 12.5786ZM8.84981 12.5786C5.66784 12.5786 3.09926 10.2802 3.09926 7.43282C3.09926 4.58548 5.66784 2.28702 8.84981 2.28702C12.0318 2.28702 14.6004 4.58548 14.6004 7.43282C14.6004 10.2802 12.0318 12.5786 8.84981 12.5786Z" fill="#828282"/>
</svg>
